<svg width="199" height="52" viewBox="0 0 199 52" fill="none" xmlns="http://www.w3.org/2000/svg">
<path d="M44.9556 33.5208L42.6849 17.5625C42.1016 13.4583 38.581 10.4167 34.4354 10.4167H15.5614C11.4158 10.4167 7.8952 13.4583 7.3119 17.5625L5.04119 33.5208C4.58288 36.7292 7.06191 39.5833 10.2909 39.5833C11.7075 39.5833 13.0407 39.0208 14.0407 38.0208L18.7487 33.3333H31.248L35.9353 38.0208C36.9352 39.0208 38.2893 39.5833 39.6851 39.5833C42.9349 39.5833 45.4139 36.7292 44.9556 33.5208ZM22.9152 22.9167H18.7487V27.0833H16.6655V22.9167H12.4991V20.8333H16.6655V16.6667H18.7487V20.8333H22.9152V22.9167ZM31.248 20.8333C30.1023 20.8333 29.1648 19.8958 29.1648 18.75C29.1648 17.6042 30.1023 16.6667 31.248 16.6667C32.3938 16.6667 33.3313 17.6042 33.3313 18.75C33.3313 19.8958 32.3938 20.8333 31.248 20.8333ZM35.4145 27.0833C34.2687 27.0833 33.3313 26.1458 33.3313 25C33.3313 23.8542 34.2687 22.9167 35.4145 22.9167C36.5602 22.9167 37.4977 23.8542 37.4977 25C37.4977 26.1458 36.5602 27.0833 35.4145 27.0833Z" fill="#ECB612"/>
<path d="M150.374 32.25C148.958 33.6667 147.308 34.375 145.425 34.375C144.258 34.375 143.158 34.1417 142.125 33.675C141.108 33.2083 140.216 32.5667 139.45 31.75C138.7 30.9333 138.1 29.975 137.65 28.875C137.217 27.7583 137 26.5583 137 25.275C137 24.0583 137.217 22.9167 137.65 21.85C138.1 20.7667 138.708 19.825 139.475 19.025C140.258 18.2083 141.175 17.5667 142.225 17.1C143.275 16.6167 144.416 16.375 145.65 16.375C147.316 16.375 148.741 16.725 149.924 17.425C151.124 18.125 152.024 19.0667 152.624 20.25L150.049 22.15C149.599 21.2667 148.966 20.5917 148.149 20.125C147.349 19.6583 146.474 19.425 145.525 19.425C144.775 19.425 144.083 19.5833 143.45 19.9C142.833 20.2167 142.3 20.65 141.85 21.2C141.416 21.75 141.075 22.3833 140.825 23.1C140.591 23.8167 140.475 24.575 140.475 25.375C140.475 26.2083 140.608 26.9917 140.875 27.725C141.141 28.4417 141.508 29.0667 141.975 29.6C142.441 30.1333 142.991 30.5583 143.625 30.875C144.275 31.175 144.975 31.325 145.725 31.325C147.441 31.325 148.991 30.5167 150.374 28.9V27.65H146.799V25.125H153.224V34.25H150.374V32.25Z" fill="white"/>
<path d="M161.914 34.5C160.864 34.5 159.914 34.325 159.064 33.975C158.214 33.6083 157.489 33.1167 156.889 32.5C156.289 31.8833 155.823 31.1667 155.489 30.35C155.173 29.5333 155.014 28.675 155.014 27.775C155.014 26.8417 155.173 25.9667 155.489 25.15C155.806 24.3167 156.264 23.5917 156.864 22.975C157.464 22.3417 158.189 21.8417 159.039 21.475C159.906 21.1083 160.872 20.925 161.939 20.925C163.005 20.925 163.955 21.1083 164.789 21.475C165.639 21.8417 166.355 22.3333 166.939 22.95C167.539 23.5667 167.988 24.2833 168.288 25.1C168.605 25.9167 168.763 26.7667 168.763 27.65C168.763 27.8667 168.755 28.075 168.738 28.275C168.738 28.475 168.722 28.6417 168.688 28.775H158.564C158.614 29.2917 158.739 29.75 158.939 30.15C159.139 30.55 159.397 30.8917 159.714 31.175C160.031 31.4583 160.389 31.675 160.789 31.825C161.189 31.975 161.606 32.05 162.039 32.05C162.705 32.05 163.33 31.8917 163.914 31.575C164.514 31.2417 164.922 30.8083 165.139 30.275L168.013 31.075C167.53 32.075 166.755 32.9 165.689 33.55C164.639 34.1833 163.38 34.5 161.914 34.5ZM165.314 26.6C165.23 25.6167 164.864 24.8333 164.214 24.25C163.58 23.65 162.805 23.35 161.889 23.35C161.439 23.35 161.014 23.4333 160.614 23.6C160.231 23.75 159.889 23.9667 159.589 24.25C159.289 24.5333 159.039 24.875 158.839 25.275C158.656 25.675 158.547 26.1167 158.514 26.6H165.314Z" fill="white"/>
<path d="M176.879 34.5C175.829 34.5 174.879 34.325 174.029 33.975C173.179 33.6083 172.454 33.1167 171.854 32.5C171.254 31.8833 170.787 31.1667 170.454 30.35C170.138 29.5333 169.979 28.675 169.979 27.775C169.979 26.8417 170.138 25.9667 170.454 25.15C170.771 24.3167 171.229 23.5917 171.829 22.975C172.429 22.3417 173.154 21.8417 174.004 21.475C174.871 21.1083 175.837 20.925 176.904 20.925C177.97 20.925 178.92 21.1083 179.754 21.475C180.604 21.8417 181.32 22.3333 181.904 22.95C182.503 23.5667 182.953 24.2833 183.253 25.1C183.57 25.9167 183.728 26.7667 183.728 27.65C183.728 27.8667 183.72 28.075 183.703 28.275C183.703 28.475 183.687 28.6417 183.653 28.775H173.529C173.579 29.2917 173.704 29.75 173.904 30.15C174.104 30.55 174.362 30.8917 174.679 31.175C174.996 31.4583 175.354 31.675 175.754 31.825C176.154 31.975 176.57 32.05 177.004 32.05C177.67 32.05 178.295 31.8917 178.879 31.575C179.479 31.2417 179.887 30.8083 180.104 30.275L182.978 31.075C182.495 32.075 181.72 32.9 180.654 33.55C179.604 34.1833 178.345 34.5 176.879 34.5ZM180.279 26.6C180.195 25.6167 179.829 24.8333 179.179 24.25C178.545 23.65 177.77 23.35 176.854 23.35C176.404 23.35 175.979 23.4333 175.579 23.6C175.196 23.75 174.854 23.9667 174.554 24.25C174.254 24.5333 174.004 24.875 173.804 25.275C173.621 25.675 173.512 26.1167 173.479 26.6H180.279Z" fill="white"/>
<path d="M194.719 34.25L190.919 28.575L189.119 30.35V34.25H185.769V16H189.119V27.075L194.369 21.175H197.943L193.069 26.725L198.293 34.25H194.719Z" fill="white"/>
<path d="M53.7 34V16.25H60.325C62.275 16.25 63.9 16.65 65.2 17.45C66.5167 18.2333 67.5083 19.3 68.175 20.65C68.8417 21.9833 69.175 23.4667 69.175 25.1C69.175 26.9 68.8083 28.4667 68.075 29.8C67.3417 31.1333 66.3083 32.1667 64.975 32.9C63.6583 33.6333 62.1083 34 60.325 34H53.7ZM65 25.1C65 24.0667 64.8167 23.1583 64.45 22.375C64.0833 21.575 63.55 20.9583 62.85 20.525C62.15 20.075 61.3083 19.85 60.325 19.85H57.8V30.4H60.325C61.325 30.4 62.1667 30.175 62.85 29.725C63.55 29.2583 64.0833 28.625 64.45 27.825C64.8167 27.0083 65 26.1 65 25.1ZM70.2746 30.075C70.2746 29.2083 70.5163 28.45 70.9996 27.8C71.4829 27.15 72.1496 26.6417 72.9996 26.275C73.8496 25.8917 74.8246 25.7 75.9246 25.7C76.4579 25.7 76.9829 25.75 77.4996 25.85C78.0163 25.9333 78.4663 26.0583 78.8496 26.225V25.65C78.8496 24.9333 78.6329 24.3833 78.1996 24C77.7663 23.6167 77.1079 23.425 76.2246 23.425C75.4913 23.425 74.7996 23.55 74.1496 23.8C73.5163 24.05 72.8413 24.4083 72.1246 24.875L70.9246 22.325C71.7913 21.7583 72.6913 21.3333 73.6246 21.05C74.5746 20.7667 75.5746 20.625 76.6246 20.625C78.5913 20.625 80.1163 21.1 81.1996 22.05C82.2996 22.9833 82.8496 24.3417 82.8496 26.125V29.55C82.8496 29.95 82.9079 30.2333 83.0246 30.4C83.1579 30.55 83.3829 30.6417 83.6996 30.675V34C83.3663 34.0667 83.0496 34.1167 82.7496 34.15C82.4663 34.1833 82.2163 34.2 81.9996 34.2C81.2496 34.2 80.6746 34.05 80.2746 33.75C79.8913 33.45 79.6496 33.0417 79.5496 32.525L79.4746 31.95C78.8913 32.7 78.1913 33.275 77.3746 33.675C76.5746 34.0583 75.7329 34.25 74.8496 34.25C73.9829 34.25 73.1996 34.0667 72.4996 33.7C71.8163 33.3333 71.2746 32.8333 70.8746 32.2C70.4746 31.5667 70.2746 30.8583 70.2746 30.075ZM78.2246 30.575C78.4079 30.425 78.5579 30.2583 78.6746 30.075C78.7913 29.8917 78.8496 29.7167 78.8496 29.55V28.375C78.5163 28.2417 78.1413 28.1417 77.7246 28.075C77.3246 27.9917 76.9496 27.95 76.5996 27.95C75.8663 27.95 75.2579 28.1167 74.7746 28.45C74.2913 28.7667 74.0496 29.1917 74.0496 29.725C74.0496 30.025 74.1329 30.3 74.2996 30.55C74.4663 30.8 74.6913 31 74.9746 31.15C75.2746 31.3 75.6246 31.375 76.0246 31.375C76.4246 31.375 76.8246 31.3 77.2246 31.15C77.6246 31 77.9579 30.8083 78.2246 30.575ZM85.3109 35.975C85.6443 36.075 85.9526 36.15 86.2359 36.2C86.5359 36.2667 86.8026 36.3 87.0359 36.3C87.3526 36.3 87.6193 36.225 87.8359 36.075C88.0693 35.9417 88.2693 35.7 88.4359 35.35C88.6026 35.0167 88.7526 34.5667 88.8859 34L83.8859 20.875H88.0109L91.0609 29.9L93.6609 20.875H97.4359L92.4359 36.125C92.2026 36.8417 91.8443 37.475 91.3609 38.025C90.8776 38.575 90.2943 39 89.6109 39.3C88.9276 39.6167 88.1776 39.775 87.3609 39.775C87.0109 39.775 86.6693 39.7417 86.3359 39.675C86.0026 39.625 85.6609 39.5333 85.3109 39.4V35.975ZM98.9549 15.75H102.955V29.325C102.955 29.875 103.055 30.2667 103.255 30.5C103.455 30.7333 103.738 30.85 104.105 30.85C104.355 30.85 104.605 30.8167 104.855 30.75C105.122 30.6667 105.355 30.575 105.555 30.475L106.08 33.475C105.58 33.7083 105.005 33.8917 104.355 34.025C103.705 34.1583 103.097 34.225 102.53 34.225C101.397 34.225 100.513 33.925 99.8799 33.325C99.2632 32.7083 98.9549 31.8417 98.9549 30.725V15.75ZM106.554 30.075C106.554 29.2083 106.796 28.45 107.279 27.8C107.762 27.15 108.429 26.6417 109.279 26.275C110.129 25.8917 111.104 25.7 112.204 25.7C112.737 25.7 113.262 25.75 113.779 25.85C114.296 25.9333 114.746 26.0583 115.129 26.225V25.65C115.129 24.9333 114.912 24.3833 114.479 24C114.046 23.6167 113.387 23.425 112.504 23.425C111.771 23.425 111.079 23.55 110.429 23.8C109.796 24.05 109.121 24.4083 108.404 24.875L107.204 22.325C108.071 21.7583 108.971 21.3333 109.904 21.05C110.854 20.7667 111.854 20.625 112.904 20.625C114.871 20.625 116.396 21.1 117.479 22.05C118.579 22.9833 119.129 24.3417 119.129 26.125V29.55C119.129 29.95 119.187 30.2333 119.304 30.4C119.437 30.55 119.662 30.6417 119.979 30.675V34C119.646 34.0667 119.329 34.1167 119.029 34.15C118.746 34.1833 118.496 34.2 118.279 34.2C117.529 34.2 116.954 34.05 116.554 33.75C116.171 33.45 115.929 33.0417 115.829 32.525L115.754 31.95C115.171 32.7 114.471 33.275 113.654 33.675C112.854 34.0583 112.012 34.25 111.129 34.25C110.262 34.25 109.479 34.0667 108.779 33.7C108.096 33.3333 107.554 32.8333 107.154 32.2C106.754 31.5667 106.554 30.8583 106.554 30.075ZM114.504 30.575C114.687 30.425 114.837 30.2583 114.954 30.075C115.071 29.8917 115.129 29.7167 115.129 29.55V28.375C114.796 28.2417 114.421 28.1417 114.004 28.075C113.604 27.9917 113.229 27.95 112.879 27.95C112.146 27.95 111.537 28.1167 111.054 28.45C110.571 28.7667 110.329 29.1917 110.329 29.725C110.329 30.025 110.412 30.3 110.579 30.55C110.746 30.8 110.971 31 111.254 31.15C111.554 31.3 111.904 31.375 112.304 31.375C112.704 31.375 113.104 31.3 113.504 31.15C113.904 31 114.237 30.8083 114.504 30.575ZM134.677 34H130.677V26.625C130.677 25.7583 130.511 25.1333 130.177 24.75C129.861 24.35 129.436 24.15 128.902 24.15C128.536 24.15 128.161 24.25 127.777 24.45C127.394 24.65 127.044 24.925 126.727 25.275C126.427 25.625 126.194 26.025 126.027 26.475V34H122.027V20.875H125.627V23.075C125.961 22.5583 126.377 22.1167 126.877 21.75C127.377 21.3833 127.952 21.1083 128.602 20.925C129.252 20.725 129.961 20.625 130.727 20.625C131.577 20.625 132.261 20.7833 132.777 21.1C133.311 21.4 133.711 21.8 133.977 22.3C134.261 22.8 134.444 23.3417 134.527 23.925C134.627 24.4917 134.677 25.05 134.677 25.6V34Z" fill="#ECB612"/>
</svg>
